<svg width="22" height="32" viewBox="0 0 22 32" fill="none" xmlns="http://www.w3.org/2000/svg">
<path fill-rule="evenodd" clip-rule="evenodd" d="M1.39501 7.82878H2.58225V6.38949H0.718282C0.527781 6.38949 0.345084 6.31271 0.21038 6.17606C0.0756759 6.03941 0 5.85406 0 5.66081L0 0.728678C0 0.535421 0.0756759 0.350079 0.21038 0.213425C0.345084 0.0767712 0.527781 0 0.718282 0L20.5037 0C20.6942 0 20.8769 0.0767712 21.0116 0.213425C21.1463 0.350079 21.222 0.535421 21.222 0.728678V5.66081C21.222 5.85406 21.1463 6.03941 21.0116 6.17606C20.8769 6.31271 20.6942 6.38949 20.5037 6.38949H18.6575V7.82878H20.3434C20.5872 7.83434 20.8234 7.91594 21.0199 8.06248C21.2164 8.20901 21.3636 8.41338 21.4416 8.64779L2.29138 30.0324C0.629238 32.1401 0.261193 31.9173 0.237448 30.1829V9.0332C0.237448 8.71377 0.362533 8.40742 0.585184 8.18155C0.807835 7.95567 1.10981 7.82878 1.42469 7.82878H1.39501ZM1.5731 1.24056H2.606V5.13688H1.5731V1.2526V1.24056ZM18.705 1.24056H19.7438V5.13688H18.705V1.2526V1.24056ZM15.8497 1.24056H16.8885V5.13688H15.8497V1.2526V1.24056ZM12.9944 1.24056H14.0332V5.13688H12.9944V1.2526V1.24056ZM10.139 1.24056H11.1779V5.13688H10.139V1.2526V1.24056ZM7.28373 1.24056H8.31069V5.13688H7.28373V1.2526V1.24056ZM4.42841 1.24056H5.46725V5.13688H4.42841V1.2526V1.24056Z" fill="#46DBBF"/>
</svg>
