<svg width="150" height="45" viewBox="0 0 150 45" fill="none" xmlns="http://www.w3.org/2000/svg">
<rect width="150" height="45" rx="6" fill="white"/>
<path d="M127.352 34.8296C127.353 34.8296 127.355 34.8296 127.357 34.8296C127.622 34.8296 127.841 34.6112 127.841 34.3458C127.841 34.3365 127.841 34.3273 127.84 34.3179C127.84 33.9551 127.621 33.7817 127.171 33.7817H126.445V35.6817H126.719V34.8535H127.054L127.061 34.8635L127.582 35.6817H127.875L127.315 34.8349L127.352 34.8296ZM127.036 34.6393H126.719V33.997H127.121C127.328 33.997 127.564 34.0308 127.564 34.3023C127.564 34.6144 127.325 34.6393 127.034 34.6393H127.036ZM21 14.054H25.0295V28.7319H32.4895V32.4505H21V14.054ZM34.2709 19.9771H38.1421V32.4436H34.2709V19.9771ZM36.2064 13.7794C37.4382 13.7797 38.4517 14.7933 38.4517 16.0251C38.4517 17.257 37.438 18.2707 36.2061 18.2707C34.9742 18.2707 33.9605 17.257 33.9605 16.0251C33.9605 14.7932 34.9742 13.7794 36.2061 13.7794C36.2062 13.7794 36.2063 13.7794 36.2064 13.7794ZM54.3352 14.0512H58.2064V25.0455L62.5936 19.9715H67.3398L62.2589 25.7431L67.2328 32.4489H62.3674L58.258 26.2866H58.2072V32.4481H54.3361L54.3352 14.0512ZM40.2885 19.9784H44.0059V21.6821H44.0587C44.8142 20.3877 46.2264 19.6119 47.7242 19.6683C51.6498 19.6683 52.3723 22.2511 52.3723 25.6064V32.4428H48.5012V26.3818C48.5012 24.935 48.4746 23.0753 46.485 23.0753C44.4729 23.0753 44.1624 24.6507 44.1624 26.2765V32.4413H40.2913L40.2885 19.9784Z" fill="#0A66C2"/>
<path d="M75.5358 24.7668C75.5361 24.7485 75.5364 24.7302 75.5364 24.712C75.5364 23.4387 74.4886 22.391 73.2153 22.391C73.1965 22.391 73.1778 22.3912 73.159 22.3917C71.7608 22.3046 70.5336 23.3701 70.4235 24.7668H75.5358ZM78.8149 30.291C77.513 31.8698 75.5673 32.7814 73.5212 32.7714C69.6501 32.7714 66.5508 30.1874 66.5508 26.1861C66.5508 22.1848 69.6497 19.602 73.5212 19.602C77.1394 19.602 79.4084 22.1827 79.4084 26.1861V27.3999H70.4235C70.6537 28.8167 71.9059 29.8583 73.3409 29.827C74.4593 29.82 75.5008 29.2456 76.1035 28.3035L78.8149 30.291ZM87.4772 22.9969C85.5417 22.9969 84.3804 24.2893 84.3804 26.1724C84.3804 28.0556 85.5413 29.3491 87.4772 29.3491C89.4132 29.3491 90.577 28.0587 90.577 26.1724C90.577 24.286 89.4152 22.9969 87.4772 22.9969ZM94.1408 32.4476H90.577V30.7943H90.5242C89.6185 32.0123 88.1933 32.7393 86.6756 32.7573C82.9562 32.7573 80.506 30.0729 80.506 26.2768C80.506 22.7905 82.6743 19.5891 86.2384 19.5891C87.8405 19.5891 89.337 20.0274 90.2148 21.2424H90.2657V14.0563H94.1403L94.1408 32.4476ZM120.274 32.4549H116.403V26.3926C116.403 24.947 116.377 23.086 114.39 23.086C112.374 23.086 112.065 24.661 112.065 26.2873V32.4544H108.194V19.9879H111.91V21.6916H111.962C112.719 20.3978 114.131 19.6223 115.629 19.6779C119.552 19.6779 120.276 22.2586 120.276 25.616L120.274 32.4549ZM103.826 18.2838C103.826 18.2838 103.826 18.2838 103.826 18.2838C102.593 18.2838 101.579 17.2698 101.579 16.0375C101.579 14.8051 102.593 13.791 103.826 13.791C105.058 13.791 106.072 14.8048 106.072 16.037C106.072 16.0371 106.072 16.0372 106.072 16.0375C106.072 17.2696 105.058 18.2837 103.826 18.2838ZM105.762 32.4549H101.887V19.9879H105.762V32.4549ZM122.204 10.1961H99.9413C98.8962 10.1843 98.0262 11.0341 98.0135 12.0792V34.4343C98.0258 35.48 98.8957 36.3307 99.9413 36.3195H122.204C123.252 36.3327 124.125 35.4821 124.139 34.4343V12.0776C124.125 11.0304 123.251 10.1807 122.204 10.1945V10.1961ZM127.113 32.9416C126.142 32.9509 125.349 33.7521 125.349 34.723C125.349 35.7003 126.153 36.5046 127.13 36.5046C128.108 36.5046 128.912 35.7003 128.912 34.723C128.912 33.7521 128.118 32.9509 127.147 32.9416H127.113ZM127.113 36.3005C127.104 36.3006 127.096 36.3008 127.086 36.3008C126.23 36.3008 125.525 35.5956 125.525 34.7386C125.525 33.8817 126.23 33.1765 127.086 33.1765C127.934 33.1765 128.635 33.8656 128.649 34.7126V34.7388C128.666 35.5771 127.992 36.2816 127.154 36.2997H127.113" fill="#0A66C2"/>
</svg>
